HIERARCHY
ROOT hip
{
  OFFSET 0 0 0
  CHANNELS 6 Xposition Yposition Zposition Zrotation Yrotation Xrotation
  JOINT abdomen
  {
    OFFSET 0 20.6881 -0.73152
    CHANNELS 3 Zrotation Xrotation Yrotation
    JOINT chest
    {
      OFFSET 0 11.7043 -0.48768
      CHANNELS 3 Zrotation Xrotation Yrotation
      JOINT neck
      {
        OFFSET 0 22.1894 -2.19456
        CHANNELS 3 Zrotation Xrotation Yrotation
        JOINT head
        {
          OFFSET -0.24384 7.07133 1.2192
          CHANNELS 3 Zrotation Xrotation Yrotation
          JOINT leftEye
          {
            OFFSET 4.14528 8.04674 8.04672
            CHANNELS 3 Zrotation Xrotation Yrotation
            End Site
            {
              OFFSET 1 0 0
            }
          }
          JOINT rightEye
          {
            OFFSET -3.6576 8.04674 8.04672
            CHANNELS 3 Zrotation Xrotation Yrotation
            End Site
            {
              OFFSET 1 0 0
            }
          }
        }
      }
      JOINT rCollar
      {
        OFFSET -2.68224 19.2634 -4.8768
        CHANNELS 3 Zrotation Xrotation Yrotation
        JOINT rShldr
        {
          OFFSET -8.77824 -1.95073 1.46304
          CHANNELS 3 Zrotation Xrotation Yrotation
          JOINT rForeArm
          {
            OFFSET -28.1742 -1.7115 0.48768
            CHANNELS 3 Zrotation Xrotation Yrotation
            JOINT rHand
            {
              OFFSET -22.5879 0.773209 7.07136
              CHANNELS 3 Zrotation Xrotation Yrotation
              JOINT rThumb1
              {
                OFFSET -1.2192 -0.487915 3.41376
                CHANNELS 3 Zrotation Xrotation Yrotation
                JOINT rThumb2
                {
                  OFFSET -3.37035 -0.52449 3.41376
                  CHANNELS 3 Zrotation Xrotation Yrotation
                  End Site
                  {
                    OFFSET -1.78271 -1.18214 1.43049
                  }
                }
              }
              JOINT rIndex1
              {
                OFFSET -7.75947 0.938293 5.60832
                CHANNELS 3 Zrotation Xrotation Yrotation
                JOINT rIndex2
                {
                  OFFSET -2.54057 -0.884171 1.56538
                  CHANNELS 3 Zrotation Xrotation Yrotation
                  End Site
                  {
                    OFFSET -1.62519 -0.234802 1.16502
                  }
                }
              }
              JOINT rMid1
              {
                OFFSET -8.24714 1.18213 3.41376
                CHANNELS 3 Zrotation Xrotation Yrotation
                JOINT rMid2
                {
                  OFFSET -3.10165 -0.590103 1.0647
                  CHANNELS 3 Zrotation Xrotation Yrotation
                  End Site
                  {
                    OFFSET -2.48547 -0.328903 0.83742
                  }
                }
              }
              JOINT rRing1
              {
                OFFSET -8.82822 0.546677 1.51678
                CHANNELS 3 Zrotation Xrotation Yrotation
                JOINT rRing2
                {
                  OFFSET -2.60934 -0.819778 -0.0198488
                  CHANNELS 3 Zrotation Xrotation Yrotation
                  End Site
                  {
                    OFFSET -2.33842 -0.294052 0.168128
                  }
                }
              }
              JOINT rPinky1
              {
                OFFSET -8.27202 -0.0477905 -0.4584
                CHANNELS 3 Zrotation Xrotation Yrotation
                JOINT rPinky2
                {
                  OFFSET -1.82734 -0.647385 -0.700984
                  CHANNELS 3 Zrotation Xrotation Yrotation
                  End Site
                  {
                    OFFSET -1.69225 -0.51767 -0.607171
                  }
                }
              }
            }
          }
        }
      }
      JOINT lCollar
      {
        OFFSET 2.68224 19.2634 -4.8768
        CHANNELS 3 Zrotation Xrotation Yrotation
        JOINT lShldr
        {
          OFFSET 8.77824 -1.95073 1.46304
          CHANNELS 3 Zrotation Xrotation Yrotation
          JOINT lForeArm
          {
            OFFSET 28.1742 -1.7115 0.48768
            CHANNELS 3 Zrotation Xrotation Yrotation
            JOINT lHand
            {
              OFFSET 22.5879 0.773209 7.07136
              CHANNELS 3 Zrotation Xrotation Yrotation
              JOINT lThumb1
              {
                OFFSET 1.2192 -0.487915 3.41376
                CHANNELS 3 Zrotation Xrotation Yrotation
                JOINT lThumb2
                {
                  OFFSET 3.37035 -0.52449 3.41376
                  CHANNELS 3 Zrotation Xrotation Yrotation
                  End Site
                  {
                    OFFSET 1.78271 -1.18214 1.43049
                  }
                }
              }
              JOINT lIndex1
              {
                OFFSET 7.75947 0.938293 5.60832
                CHANNELS 3 Zrotation Xrotation Yrotation
                JOINT lIndex2
                {
                  OFFSET 2.54057 -0.884171 1.56538
                  CHANNELS 3 Zrotation Xrotation Yrotation
                  End Site
                  {
                    OFFSET 1.62519 -0.234802 1.16502
                  }
                }
              }
              JOINT lMid1
              {
                OFFSET 8.24714 1.18213 3.41376
                CHANNELS 3 Zrotation Xrotation Yrotation
                JOINT lMid2
                {
                  OFFSET 3.10165 -0.590103 1.0647
                  CHANNELS 3 Zrotation Xrotation Yrotation
                  End Site
                  {
                    OFFSET 2.48547 -0.328903 0.83742
                  }
                }
              }
              JOINT lRing1
              {
                OFFSET 8.82822 0.546677 1.51678
                CHANNELS 3 Zrotation Xrotation Yrotation
                JOINT lRing2
                {
                  OFFSET 2.60934 -0.819778 -0.0198488
                  CHANNELS 3 Zrotation Xrotation Yrotation
                  End Site
                  {
                    OFFSET 2.33842 -0.294052 0.168128
                  }
                }
              }
              JOINT lPinky1
              {
                OFFSET 8.27202 -0.0477905 -0.4584
                CHANNELS 3 Zrotation Xrotation Yrotation
                JOINT lPinky2
                {
                  OFFSET 1.82734 -0.647385 -0.700984
                  CHANNELS 3 Zrotation Xrotation Yrotation
                  End Site
                  {
                    OFFSET 1.69225 -0.51767 -0.607171
                  }
                }
              }
            }
          }
        }
      }
    }
  }
  JOINT rButtock
  {
    OFFSET -8.77824 4.35084 1.2192
    CHANNELS 3 Zrotation Xrotation Yrotation
    JOINT rThigh
    {
      OFFSET 0 -1.70687 -2.19456
      CHANNELS 3 Zrotation Xrotation Yrotation
      JOINT rShin
      {
        OFFSET 0 -36.8199 0.73152
        CHANNELS 3 Zrotation Xrotation Yrotation
        JOINT rFoot
        {
          OFFSET 0.73152 -45.1104 -5.12064
          CHANNELS 3 Zrotation Xrotation Yrotation
          End Site
          {
            OFFSET -1.1221 -3.69964 12.103
          }
        }
      }
    }
  }
  JOINT lButtock
  {
    OFFSET 8.77824 4.35084 1.2192
    CHANNELS 3 Zrotation Xrotation Yrotation
    JOINT lThigh
    {
      OFFSET 0 -1.70687 -2.19456
      CHANNELS 3 Zrotation Xrotation Yrotation
      JOINT lShin
      {
        OFFSET 0 -36.8199 0.73152
        CHANNELS 3 Zrotation Xrotation Yrotation
        JOINT lFoot
        {
          OFFSET -0.73152 -45.1104 -5.12064
          CHANNELS 3 Zrotation Xrotation Yrotation
          End Site
          {
            OFFSET 1.1221 -3.69964 12.103
          }
        }
      }
    }
  }
}
MOTION
Frames:	4
Frame Time:	0.00833333
54.1342 72.3128 131.477 -177.755 0.9419 193.318 3.9357 9.79492 3.59048 -0.207241 -11.797 1.11005 -6.08506 7.20163 -2.51451 9.68759 -36.447 -1.92847 -0.0 0.0 0.0 -0.0 0.0 0.0 -1.7406e-14 -2.62125e-13 4.95797e-14 79.859 35.317 0.41754 -12.01 -5.45568 21.629 -1.89188 35.9134 5.84015 -2.0091e-09 8.96386e-10 -2.65655e-10 -3.47562e-09 1.50775e-09 -4.02136e-10 -2.00909e-09 8.96389e-10 -2.65669e-10 7.73091 5.47488 0.417314 -2.0091e-09 8.96389e-10 -2.65656e-10 2.90554 0.965183 0.102902 -2.00909e-09 8.96387e-10 -2.65655e-10 10.2786 0.731801 0.0259123 -2.00911e-09 8.96388e-10 -2.6565e-10 2.22167 -0.733487 -0.20892 -1.72404e-14 -2.62119e-13 4.95397e-14 -83.3379 21.8435 4.05984 11.5252 -5.12207 -20.6932 1.42603 31.878 -5.01031 1.62235e-09 2.09547e-10 -1.10962e-09 2.77596e-09 3.40996e-10 -1.95434e-09 1.62234e-09 2.09551e-10 -1.10961e-09 -7.73091 5.47488 -0.417314 1.62235e-09 2.09547e-10 -1.10962e-09 -2.90554 0.965183 -0.102902 1.62234e-09 2.09547e-10 -1.10962e-09 -10.2786 0.731801 -0.0259123 1.62236e-09 2.09548e-10 -1.10963e-09 -2.22167 -0.733487 0.20892 -2.03217e-16 0.0 -3.88251e-19 17.2115 -41.8849 11.7543 -0.979876 62.3324 2.40555 -18.9728 -22.8003 -33.676 2.03217e-16 0.0 3.88251e-19 -3.55622 -43.9032 -10.0255 1.22784 63.5597 -2.1069 8.12725 -29.121 13.1139
54.1939 72.4383 131.066 -177.681 1.0393 193.259 3.89969 9.28748 3.60116 -0.0368027 -11.3094 1.13103 -6.15541 6.72341 -2.53571 9.57963 -36.0008 -1.98063 -0.0 0.0 0.0 -0.0 0.0 0.0 -2.53346e-14 -1.39151e-13 3.03022e-14 79.643 34.8477 0.728964 -11.8767 -5.36283 21.3709 -2.04481 37.1025 6.09911 -1.23902e-09 5.7811e-10 -2.15784e-10 -2.14547e-09 9.76319e-10 -3.37976e-10 -1.23901e-09 5.78113e-10 -2.15798e-10 7.73091 5.47488 0.417314 -1.23902e-09 5.78112e-10 -2.15782e-10 2.90554 0.965183 0.102902 -1.23901e-09 5.78113e-10 -2.15786e-10 10.2786 0.731801 0.0259123 -1.23903e-09 5.78114e-10 -2.15779e-10 2.22167 -0.733487 -0.20892 -2.51274e-14 -1.39146e-13 3.02494e-14 -83.4181 20.8097 3.7864 11.3402 -4.99801 -20.3376 1.62936 33.7922 -5.39056 8.92209e-10 1.26545e-10 -6.03641e-10 1.52785e-09 2.07389e-10 -1.06318e-09 8.92203e-10 1.26549e-10 -6.03626e-10 -7.73091 5.47488 -0.417314 8.92211e-10 1.26547e-10 -6.03636e-10 -2.90554 0.965183 -0.102902 8.92204e-10 1.26547e-10 -6.03638e-10 -10.2786 0.731801 -0.0259123 8.92211e-10 1.26548e-10 -6.03646e-10 -2.22167 -0.733487 0.20892 -2.03217e-16 0.0 -3.88251e-19 17.0301 -41.2884 11.4297 -0.950416 61.8076 2.3589 -18.8535 -22.8809 -33.4952 2.03217e-16 0.0 3.88251e-19 -3.14136 -43.1033 -9.5846 1.17154 62.8445 -2.05787 8.3149 -29.4526 13.336
54.2167 72.6385 130.635 -177.718 1.0271 193.167 3.84924 8.81267 3.58274 0.144445 -10.8159 1.14582 -6.21498 6.23683 -2.56598 9.42282 -35.4597 -2.06363 -0.0 0.0 0.0 -0.0 0.0 0.0 -2.96607e-14 -1.0611e-14 9.10527e-15 79.4728 34.4922 0.957891 -11.7555 -5.27897 21.1371 -2.20151 38.2295 6.35421 -4.63676e-10 2.73861e-10 -1.90828e-10 -8.07019e-10 4.69426e-10 -3.16872e-10 -4.63668e-10 2.73865e-10 -1.90844e-10 7.73091 5.47488 0.417314 -4.63674e-10 2.73863e-10 -1.90824e-10 2.90554 0.965183 0.102902 -4.63664e-10 2.73866e-10 -1.90832e-10 10.2786 0.731801 0.0259123 -4.63677e-10 2.73866e-10 -1.90825e-10 2.22167 -0.733487 -0.20892 -2.94261e-14 -1.06073e-14 9.02878e-15 -83.5475 19.9483 3.55496 11.1684 -4.8833 -20.0099 1.85315 35.6457 -5.77981 1.64064e-10 3.24349e-11 -1.23612e-10 2.82418e-10 5.44848e-11 -2.16866e-10 1.64058e-10 3.24392e-11 -1.23598e-10 -7.73091 5.47488 -0.417314 1.64067e-10 3.24396e-11 -1.23606e-10 -2.90554 0.965183 -0.102902 1.64062e-10 3.24397e-11 -1.23609e-10 -10.2786 0.731801 -0.0259123 1.64064e-10 3.24402e-11 -1.23616e-10 -2.22167 -0.733487 0.20892 -2.03217e-16 0.0 -3.88251e-19 16.6697 -40.4355 10.9217 -0.906102 61.0306 2.28975 -18.6357 -22.9199 -33.2211 2.03217e-16 0.0 3.88251e-19 -2.7585 -42.015 -9.17894 1.09885 61.8617 -1.98987 8.47974 -29.7149 13.5433
54.2267 72.997 130.083 -177.761 0.8357 192.905 3.80364 8.43425 3.48039 0.312862 -10.476 1.13781 -6.23074 5.83693 -2.59969 9.21596 -34.7635 -2.16774 -0.0 0.0 0.0 -0.0 0.0 0.0 -2.49682e-14 7.47428e-14 -4.72114e-15 79.452 34.4141 0.967662 -11.6589 -5.21229 20.9517 -2.3255 39.0622 6.54945 2.62237e-11 1.11124e-10 -2.30676e-10 3.70062e-11 2.00216e-10 -3.99106e-10 2.62304e-11 1.11127e-10 -2.30692e-10 7.73091 5.47488 0.417314 2.62256e-11 1.11126e-10 -2.3067e-10 2.90554 0.965183 0.102902 2.62362e-11 1.11129e-10 -2.3068e-10 10.2786 0.731801 0.0259123 2.62235e-11 1.11129e-10 -2.30673e-10 2.22167 -0.733487 -0.20892 -2.47296e-14 7.47452e-14 -4.82053e-15 -83.739 19.5363 3.51701 11.0531 -4.80638 -19.7917 2.05116 37.1148 -6.1048 -2.80073e-10 -4.87166e-11 1.19961e-10 -4.79154e-10 -8.01722e-11 2.14199e-10 -2.80078e-10 -4.87126e-11 1.19974e-10 -7.73091 5.47488 -0.417314 -2.80069e-10 -4.87109e-11 1.19967e-10 -2.90554 0.965183 -0.102902 -2.80073e-10 -4.87107e-11 1.19964e-10 -10.2786 0.731801 -0.0259123 -2.80073e-10 -4.87102e-11 1.19958e-10 -2.22167 -0.733487 0.20892 -2.03217e-16 0.0 -3.88251e-19 16.1248 -39.2569 10.2185 -0.843589 59.9465 2.19555 -18.3243 -22.8845 -32.8865 2.03217e-16 0.0 3.88251e-19 -2.44032 -40.6398 -8.88283 1.01502 60.6249 -1.90362 8.51619 -29.7985 13.601
